<?xml version="1.0" encoding="utf-8"?>
<!-- Generator: Adobe Illustrator 28.2.0, SVG Export Plug-In . SVG Version: 6.00 Build 0)  -->
<svg version="1.1" xmlns="http://www.w3.org/2000/svg" xmlns:xlink="http://www.w3.org/1999/xlink" x="0px" y="0px"
	 viewBox="0 0 144 144" style="enable-background:new 0 0 144 144;" xml:space="preserve">
<style type="text/css">
	.st0{display:none;}
	.st1{display:inline;}
	.st2{fill:#FFFFFF;}
	.st3{display:inline;fill:none;stroke:#000000;stroke-width:0.25;stroke-miterlimit:10;}
	.st4{fill:#2E3192;}
	.st5{fill:none;stroke:#000000;stroke-miterlimit:10;}
	.st6{display:inline;fill:#FFFFFF;}
</style>
<g id="Layer_1" class="st0">
	<g class="st1">
		<path d="M63.02,118.96c0.87-0.87,1.85-1.67,2.6-2.65c0.59-0.77,1.35-1.39,1.75-2.36c0.32-0.78,1-1.42,1.57-2.07
			c0.42-0.47,1-0.41,1.55-0.26c0.83,0.23,0.83,0.23,0.88-0.66c0-0.05,0.05-0.1,0.09-0.2c0.58-0.15,1.42-0.08,1.19-1.1
			c1.03-0.57,1.05-0.63,0.42-1.38c-0.24,0.11-0.5,0.22-0.75,0.33c-0.36-0.54-0.09-1.22,0.51-1.28c0.3-0.03,0.62,0.08,0.93,0.15
			c0.26,0.06,0.51,0.17,0.82,0.27c0.01-0.75-0.8-0.43-0.89-0.94c0.44-0.62,0.8-1.27,0.81-2.07c0-0.15,0.11-0.36,0.24-0.43
			c0.79-0.47,1.08-1.27,1.45-2.03c0.1-0.22,0.32-0.39,0.48-0.58c0.13-0.15,0.34-0.28,0.37-0.44c0.08-0.45,0.36-0.64,0.74-0.77
			c0.37-0.12,0.49-0.37,0.42-0.75c-0.11-0.56,0.09-0.97,0.61-1.22c0.4-0.19,0.49-0.5,0.41-0.94c-0.14-0.85-0.06-0.82,0.72-1.22
			c1.13-0.58,2.18-1.31,2.95-2.36c0.13-0.18,0.25-0.44,0.22-0.64c-0.12-0.8,0.3-1.37,0.79-1.86c1.16-1.18,2.38-2.31,3.57-3.46
			c0.12-0.12,0.31-0.26,0.32-0.4c0.11-1.08,1.19-1.74,1.24-2.84c0-0.06,0.03-0.11,0.06-0.16c0.55-0.85,1.07-1.72,1.66-2.54
			c0.26-0.36,0.66-0.65,1.03-0.91c0.81-0.56,1.21-1.29,1.16-2.29c-0.03-0.55,0-1.11,0.08-1.65c0.04-0.26,0.24-0.54,0.45-0.71
			c0.56-0.46,1.2-0.82,1.74-1.3c0.47-0.42,0.84-0.94,1.24-1.43c0.11-0.13,0.11-0.37,0.23-0.46c1.13-0.77,1.47-2.14,2.34-3.1
			c0.08-0.08,0.15-0.19,0.18-0.3c0.32-1.09,0.98-1.97,1.77-2.77c0.24-0.25,0.45-0.55,0.59-0.86c0.38-0.84,1.07-1.44,1.61-2.14
			c0.61-0.78,1.44-1.36,1.83-2.37c0.21-0.56,0.93-0.92,1.41-1.37c0.25-0.24,0.52-0.47,0.74-0.73c0.13-0.15,0.28-0.38,0.25-0.54
			c-0.12-0.64,0.33-0.94,0.67-1.34c0.91-1.05,1.84-2.07,2.37-3.41c0.28-0.7,0.87-1.31,1.4-1.87c0.44-0.47,0.73-0.92,0.8-1.58
			c0.09-0.75,0.36-1.47,0.97-2c0.64-0.56,1.04-1.27,1.43-2.04c0.7-1.36,1.07-2.9,2.15-4.07c0.2-0.9,0.95-1.35,1.54-1.95
			c0.25-0.25,0.4-0.62,0.58-0.94c0.1-0.17,0.18-0.36,0.3-0.52c0.31-0.38,0.6-0.79,0.96-1.12c0.99-0.89,1.62-1.95,1.84-3.27
			c0.16-0.93,0.68-1.72,1.23-2.49c0.67-0.95,1.27-1.95,1.91-2.92c0.16-0.24,0.31-0.52,0.54-0.68c1.23-0.82,1.73-2.12,2.32-3.38
			c0.32-0.68,0.81-1.27,1.24-1.89c0.51-0.74,1.15-1.4,1.34-2.32c0.04-0.18,0.22-0.33,0.33-0.5c0.2-0.31,0.41-0.63,0.6-0.95
			c0.31-0.52,0.62-1.04,0.91-1.57c0.1-0.17,0.17-0.37,0.23-0.56c0.13-0.42,0.22-0.85,0.37-1.26c0.29-0.78,1.15-1.32,1.91-1.23
			c1.12,0.13,1.52,0.62,1.37,1.73c-0.08,0.54-0.26,1.07-0.32,1.62c-0.16,1.48-0.18,2.97-0.44,4.43c-0.32,1.79-0.35,3.59-0.47,5.39
			c-0.06,0.98,0.01,1.97,0,2.96c-0.02,1.66-0.07,3.32-0.1,4.98c-0.01,0.52,0.02,1.05-0.05,1.57c-0.18,1.53-0.45,3.05-0.59,4.58
			c-0.08,0.89,0.02,1.8,0.04,2.69c0.03,1.23-0.07,2.45-0.44,3.63c-0.05,0.16-0.07,0.35-0.06,0.52c0.11,1.81,0.03,3.61-0.21,5.4
			c-0.01,0.06-0.03,0.12-0.02,0.17c0.26,1.3,0.13,2.6,0.14,3.91c0,0.29,0.1,0.6,0.04,0.87c-0.31,1.41-0.12,2.78,0.31,4.13
			c0.04,0.13,0.04,0.29,0.04,0.43c-0.05,2.33-0.1,4.66-0.16,6.98c-0.02,0.9-0.13,1.8-0.12,2.7c0.01,0.75,0.12,1.51,0.19,2.26
			c0.01,0.15,0.08,0.31,0.03,0.43c-0.63,1.46,0.06,2.98-0.18,4.48c-0.24,1.45-0.07,2.97-0.09,4.45c-0.02,0.93-0.11,1.86-0.1,2.78
			c0.01,1.16,0.11,2.32,0.16,3.49c0.02,0.34,0,0.69,0,1.03c0,0.41-0.03,0.82,0.02,1.22c0.08,0.58,0.21,1.15-0.01,1.72
			c-0.04,0.1-0.04,0.24-0.02,0.35c0.35,1.56,0.01,3.14,0.14,4.7c0.1,1.21-0.03,2.45,0.29,3.65c0.05,0.19,0.01,0.4,0.01,0.61
			c0.01,1.19,0.01,2.38,0.04,3.57c0.03,1.34,0.09,2.67,0.11,4.01c0.02,1.37,0.21,2.72,0.47,4.07c0.08,0.42,0.04,0.87,0.08,1.3
			c0.04,0.37,0.15,0.74,0.17,1.11c0.08,1.75,0.15,3.49,0.21,5.24c0.02,0.66,0.01,1.33,0.03,1.99c0,0.14,0.02,0.3,0.07,0.43
			c0.3,0.68,0.27,1.39,0.37,2.1c0.16,1.15,0.14,2.31,0.36,3.44c0.06,0.31,0.04,0.64,0.09,0.96c0.16,1.02-0.49,1.64-1.15,2.21
			c-0.21,0.18-0.6,0.24-0.9,0.22c-0.9-0.06-1.72,0.17-2.55,0.51c-1.65,0.67-3.35,0.93-5.13,0.66c-0.3-0.05-0.63,0.04-0.93,0.13
			c-0.56,0.18-1.12,0.24-1.72,0.19c-0.72-0.06-1.45,0.03-2.18,0.04c-0.7,0-1.39-0.02-2.09-0.04c-0.17,0-0.35-0.06-0.52-0.05
			c-1.49,0.04-2.97,0.05-4.45,0.16c-0.69,0.05-1.37,0.26-2.04,0.45c-0.62,0.17-1.2,0.16-1.8-0.04c-0.86-0.28-1.74-0.48-2.59-0.79
			c-0.32-0.12-0.66-0.41-0.81-0.72c-0.29-0.59-0.45-1.25-0.66-1.88c-0.29-0.89-0.5-1.74-0.15-2.71c0.23-0.63,0.12-1.38,0.16-2.08
			c0-0.09,0.01-0.19-0.02-0.26c-0.5-1.05-0.17-2.17-0.13-3.22c0.03-1.02,0.3-2.03,0.1-3.08c-0.1-0.5-0.07-1.04-0.04-1.55
			c0.03-0.57,0.17-1.14,0.2-1.71c0.03-0.51-0.04-1.03-0.05-1.55c-0.02-0.66-0.03-1.33-0.03-1.99c0-0.26,0.06-0.52,0.05-0.78
			c-0.03-1.19-0.09-2.38-0.1-3.57c0-0.4,0.13-0.79,0.16-1.19c0.06-0.93-0.02-1.87,0.15-2.78c0.29-1.61-0.07-3.17-0.15-4.75
			c-0.05-0.96,0.09-1.92,0.05-2.88c-0.03-0.78-0.11-1.58-0.31-2.33c-0.2-0.8-0.87-1.24-1.65-1.38c-1.18-0.22-2.37-0.34-3.52,0.19
			c-0.31,0.15-0.6,0.4-0.93,0.46c-0.6,0.11-1.24,0.24-1.81,0.12c-1.93-0.41-3.83-0.19-5.73,0.09c-0.52,0.08-1.04,0.18-1.56,0.17
			c-1.28-0.03-2.87,1.57-2.82,2.97c0.09,2.51-0.32,5-0.51,7.49c-0.2,2.73-0.55,5.45-0.67,8.18c-0.1,2.26,0.04,4.54,0.09,6.8
			c0.01,0.64,0.1,1.28,0.09,1.92c-0.01,0.3-0.22,0.59-0.26,0.9c-0.12,0.86-0.32,1.73-0.27,2.58c0.03,0.55-0.02,1.08,0,1.62
			c0.04,1.31-0.44,2.4-1.39,3.26c-0.35,0.32-0.82,0.58-1.28,0.71c-1.37,0.39-2.77,0.67-4.14,1.07c-2.92,0.86-5.91,0.96-8.91,0.84
			c-1.6-0.06-3.21-0.17-4.79-0.38c-1.12-0.15-2.15,0.14-3.16,0.46c-1.13,0.36-2.26,0.54-3.43,0.6c-0.7,0.04-1.4,0.08-2.1,0.08
			c-1.14-0.01-2.18,0.31-3.21,0.74c-1.4,0.58-2.69,0.3-3.89-0.52c-0.51-0.35-0.59-1.44-0.21-2.01c0.24-0.36,0.47-0.75,0.76-1.06
			c0.57-0.62,0.65-1.35,0.57-2.12c-0.05-0.51,0.09-0.88,0.46-1.24c0.67-0.64,1.15-1.46,1.98-1.95c0.2-0.12,0.29-0.43,0.45-0.64
			c0.36-0.49,0.79-0.89,1.27-1.29c0.85-0.71,1.9-1.29,2.27-2.46c0.07-0.21,0.24-0.42,0.41-0.55c0.82-0.61,1.32-1.46,1.86-2.29
			c0.14-0.21,0.35-0.38,0.55-0.54c0.2-0.16,0.44-0.28,0.65-0.43C63.1,119.85,63.1,119.84,63.02,118.96z M107.19,71.69
			c0.07-0.01,0.14-0.02,0.21-0.03c-0.1-0.63-0.19-1.26-0.29-1.89c-0.08-0.51-0.16-1.03-0.28-1.54c-0.12-0.53-0.23-1.08-0.43-1.58
			c-0.35-0.87-1.44-0.99-1.88-0.15c-0.35,0.69-0.77,1.3-1.29,1.85c-0.78,0.84-1.34,1.89-2.39,2.47c-0.13,0.07-0.25,0.27-0.27,0.42
			c-0.14,0.95-0.31,1.9-0.35,2.85c-0.02,0.46-0.07,0.84-0.32,1.23c-0.47,0.7-0.93,1.4-1.36,2.13c-0.75,1.27-1.28,2.67-2.27,3.81
			c-0.61,0.7-1.11,1.49-1.62,2.26c-0.3,0.46-0.52,0.97-0.79,1.44c-0.22,0.38-0.49,0.72-0.7,1.1c-0.45,0.81-0.86,1.64-1.3,2.45
			c-0.12,0.23-0.27,0.46-0.47,0.63c-0.84,0.71-1.18,1.63-1.19,2.7c0,0.26-0.1,0.51-0.13,0.77c-0.15,1.08,0.24,1.9,1.2,2.27
			c0.41,0.16,0.9,0.12,1.36,0.12c0.35,0,0.7-0.14,1.04-0.09c1.43,0.19,2.88,0.08,4.26-0.15c2.16-0.36,4.24,0.04,6.35,0.21
			c0.75,0.44,1.37,0.08,2.03-0.29c0.74-0.41,0.99-1.03,0.98-1.81c-0.02-1.57-0.01-3.15-0.1-4.72c-0.11-1.85,0.22-3.66,0.47-5.46
			c0.34-2.42,0.18-4.83,0.21-7.25c0-0.25-0.13-0.51-0.17-0.76C107.52,73.69,107.36,72.69,107.19,71.69z M69.63,124.24
			c0.06,0.31,0.03,0.66,0.19,0.82c0.27,0.27,0.65,0.55,1.01,0.59c0.66,0.08,1.33-0.02,2-0.03c1.06-0.02,1.91-0.59,2.8-1.06
			c0.63-0.34,0.78-1.62,0.28-2.09c-0.58-0.55-1.32-0.55-2,0.01c0.1,0.64,0.2,1.27,0.32,1.97C72.66,124.39,71.21,123.98,69.63,124.24
			z M129.69,73.78c-0.6,0.52-0.48,1.08-0.51,1.57c-0.04,0.84,0.06,1.69-0.05,2.52c-0.09,0.65-0.14,1.26,0.02,1.89
			c0.05,0.19-0.02,0.4-0.03,0.6c-0.01,0.26-0.05,0.53-0.02,0.78c0.08,0.53,0.56,0.71,0.96,0.34c0.18-0.17,0.28-0.43,0.4-0.65
			c0.1-0.2,0.12-0.48,0.28-0.62c0.47-0.43,0.49-1,0.29-1.45c-0.21-0.48-0.09-1.18-0.78-1.43c-0.1-0.04-0.17-0.37-0.12-0.53
			c0.08-0.24,0.29-0.43,0.42-0.65c0.15-0.25,0.28-0.52,0.49-0.91c-0.49,0.03-0.79,0.05-1.19,0.07
			C129.81,74.85,129.76,74.4,129.69,73.78z M119.37,84.46c-0.06,0.03-0.18,0.06-0.26,0.13c-0.75,0.61-1.52,1.2-1.06,2.36
			c0.08,0.21,0.05,0.46,0.08,0.69c0.07,0.53,0.45,0.86,1,0.88c0.42,0.01,0.76-0.3,0.8-0.86c0.05-0.58,0.14-1.12,0.46-1.65
			C120.69,85.52,119.95,84.41,119.37,84.46z M124.08,131.67c0.45,0.46,0.79,0.71,1.22,0.6c0.53-0.14,0.88,0.03,1.08,0.47
			c1.44,0.01,1.76-1.1,2.29-2.02c-0.23-0.29-0.4-0.56-0.62-0.79c-0.43-0.45-0.7-0.46-1.07,0.01c-0.51,0.66-1.19,1-1.94,1.27
			C124.75,131.31,124.49,131.47,124.08,131.67z M67.08,128.1c0.05-0.33,0.08-0.58,0.12-0.8c0.36-0.18,0.69-0.34,1.1-0.55
			c-0.55-0.71-1.2-0.75-1.95-0.79c0.6,0.75,0.57,0.81-0.16,1.23c-0.25,0.14-0.42,0.42-0.64,0.66
			C66.07,128.29,66.54,128.2,67.08,128.1z M121.93,127.59c0.64-0.31,1.19-0.58,1.7-0.83c0-0.43,0.02-0.74-0.01-1.06
			c-0.03-0.38-0.26-0.52-0.59-0.37c-0.46,0.2-0.85,0.5-0.94,1.05C122.03,126.74,121.99,127.1,121.93,127.59z M131.85,132.92
			c-0.98-0.34-1.02-0.34-1.93-0.26c-0.82,0.07-0.82,0.07-0.93,1.03C130.02,133.86,130.96,133.77,131.85,132.92z M77.12,129.43
			c0.46,0.73,1.42,0.87,2.34,0.33c-0.42-0.16-0.81-0.24-1.12-0.44C77.9,129.04,77.55,129.1,77.12,129.43z M62.6,123.74
			c0.06-0.44,0.11-0.79,0.18-1.29c-0.66,0.21-0.86,0.71-1.18,1.2C61.92,123.68,62.23,123.71,62.6,123.74z M70.15,125.98
			c0.09,0.75,0.65,1,1.36,0.67C71.22,126.13,70.76,126,70.15,125.98z M73.97,120.84c0.3,0.19,0.52,0.37,0.77,0.46
			c0.14,0.05,0.34-0.07,0.51-0.12c-0.07-0.19-0.1-0.47-0.24-0.56C74.7,120.42,74.37,120.54,73.97,120.84z M64.75,121.85
			c-0.27-0.31-0.37-0.5-0.52-0.58c-0.23-0.12-0.55-0.17-0.67,0.14c-0.12,0.32,0.15,0.48,0.41,0.53
			C64.14,121.97,64.33,121.9,64.75,121.85z M129.69,82.29c-0.45,0.73-0.31,0.99,0.5,1.04C130.33,82.87,130.08,82.59,129.69,82.29z
			 M75.09,131.72c0.31,0.51,0.34,0.52,1.04,0.29C75.85,131.4,75.76,131.38,75.09,131.72z M69.57,131.51
			c-0.22-0.31-0.44-0.43-0.72-0.19c-0.05,0.04-0.05,0.24,0,0.3C69.07,131.83,69.3,131.8,69.57,131.51z M120.51,101.09
			c0.56-0.02,0.67-0.2,0.59-0.72C120.87,100.65,120.74,100.81,120.51,101.09z M76.79,128.23c-0.04-0.06-0.08-0.12-0.13-0.18
			c-0.11,0.08-0.22,0.16-0.33,0.24c0.03,0.04,0.05,0.09,0.08,0.13C76.54,128.35,76.66,128.29,76.79,128.23z M64.7,130.01
			c0.01-0.05,0.01-0.09,0.02-0.14c-0.13-0.02-0.27-0.04-0.4-0.06c-0.01,0.05-0.01,0.1-0.02,0.15
			C64.43,129.97,64.56,129.99,64.7,130.01z M64.33,130.82c-0.05,0.05-0.11,0.1-0.16,0.15c0.04,0.03,0.09,0.11,0.11,0.1
			c0.07-0.02,0.12-0.08,0.18-0.12C64.42,130.91,64.39,130.88,64.33,130.82z"/>
		<path d="M67.21,103.75c0.49,0.87,0.35,1.57-0.26,2.32c-0.46,0.57-1.12,1-1.31,1.79c-0.07,0.3-0.44,0.52-0.68,0.78
			c-0.42,0.45-0.78,0.91-0.89,1.56c-0.08,0.45-0.28,0.89-0.51,1.3c-0.33,0.58-0.71,1.15-1.52,1.14c-0.21,0-0.42,0.15-0.69,0.26
			c0.16,0.34,0.28,0.62,0.4,0.87c-0.87,1.14-1.74,2.24-2.32,3.54c-0.1,0.23-0.3,0.5-0.51,0.57c-0.87,0.28-1.18,1.08-1.69,1.69
			c-0.22,0.26-0.47,0.51-0.72,0.74c-0.4,0.37-0.81,0.51-1.3,0.08c-0.19-0.16-0.54-0.12-0.82-0.18c-0.43-0.09-0.85-0.18-1.14-0.24
			c-0.24,0.32-0.44,0.59-0.64,0.86c0.59,0.41,1.61,0.14,2.56,0.49c-0.61,0.74-1.04,1.44-1.79,1.9c-0.53,0.32-1.09,0.66-1.23,1.38
			c-0.03,0.17-0.31,0.32-0.5,0.43c-0.94,0.54-1.83,1.14-2.3,2.17c-0.04,0.08-0.09,0.19-0.15,0.21c-1.03,0.32-1.57,1.43-2.67,1.66
			c-0.27,0.06-0.5,0.28-0.74,0.44c-0.85,0.59-1.76,1.11-2.64,1.64c-0.86,0.51-1.67,1.12-2.54,1.61c-0.17,0.1-0.36,0.23-0.54,0.23
			c-0.59-0.01-1.04,0.28-1.53,0.55c-1.74,0.94-3.57,1.65-5.53,1.98c-0.49,0.08-0.98,0.18-1.43,0.38c-1.09,0.48-2.2,0.52-3.33,0.21
			c-0.77-0.21-1.53-0.28-2.33-0.27c-1.12,0.02-2.19-0.19-3.18-0.8c-0.46-0.29-1.01-0.44-1.52-0.65c-0.32-0.13-0.66-0.23-0.98-0.37
			c-0.48-0.21-0.93-0.54-1.43-0.65c-1.27-0.26-2.17-1.06-3.04-1.93c-0.25-0.24-0.55-0.43-0.8-0.66c-0.51-0.48-1.03-0.95-1.49-1.47
			c-0.6-0.67-1.21-1.35-1.69-2.1c-0.66-1.02-1.27-2.09-1.79-3.2c-0.57-1.21-1.08-2.45-1.51-3.71c-0.33-0.95-0.49-1.96-0.73-2.94
			c-0.05-0.23-0.12-0.45-0.18-0.67c-0.05-0.2-0.17-0.41-0.13-0.59c0.18-0.8-0.08-1.56-0.16-2.34c-0.1-0.87-0.18-1.73,0.17-2.59
			c0.13-0.31,0.13-0.69,0.11-1.03c-0.07-0.93,0.28-1.77,0.45-2.65c0.02-0.11,0.09-0.21,0.17-0.3c0.69-0.86,0.9-1.95,1.34-2.93
			c0.53-1.19,0.88-2.47,1.67-3.54c0.22-0.3,0.48-0.59,0.74-0.86c0.35-0.35,0.66-0.68,0.79-1.22c0.15-0.65,0.71-1.03,1.25-1.41
			c0.5,0.15,0.67,0.51,0.56,0.95c-0.27,1.1-0.55,2.2-0.9,3.27c-0.11,0.33-0.49,0.56-0.69,0.88c-0.87,1.37-1.73,2.75-2.15,4.34
			c-0.39,1.46-0.76,2.92-1.08,4.4c-0.1,0.44-0.1,0.94-0.01,1.39c0.22,1.14,0.52,2.27,0.79,3.4c0.02,0.08,0.07,0.16,0.09,0.25
			c0.53,2.46,2.1,4.3,3.69,6.11c0.83,0.95,1.85,1.71,2.99,2.25c0.67,0.32,1.44,0.43,2.18,0.62c0.73,0.19,1.47,0.35,2.21,0.52
			c1.69,0.38,3.37,0.39,5.11,0.13c1.47-0.22,2.83-0.71,4.15-1.3c0.99-0.45,1.89-1.09,2.7-1.87c0.61-0.59,1.02-1.41,1.87-1.76
			c0.1-0.04,0.18-0.15,0.24-0.25c0.56-1,1.5-1.58,2.4-2.21c0.18-0.13,0.41-0.3,0.46-0.5c0.15-0.61,0.59-1.08,0.62-1.77
			c0.03-0.56,0.25-1.3,1.13-1.3c0.12,0,0.29-0.11,0.35-0.22c0.58-0.97,1.64-1.44,2.35-2.28c0.26-0.3,0.64-0.52,0.61-1.01
			c-0.01-0.08,0.04-0.18,0.1-0.24c0.86-0.98,1.31-2.27,2.4-3.08c0.29-0.21,0.47-0.57,0.71-0.85c0.14-0.17,0.29-0.34,0.45-0.5
			c0.18-0.18,0.37-0.36,0.58-0.51c0.25-0.19,0.5-0.37,0.77-0.52c0.22-0.13,0.5-0.17,0.71-0.32c0.36-0.25,0.71-0.32,1.15-0.24
			c0.59,0.11,0.91-0.14,1.04-0.76c0.08-0.4,0.26-0.63,0.65-0.71c0.42-0.09,0.52-0.37,0.52-0.78c0-0.49,0.04-0.99,0.18-1.45
			c0.08-0.28,0.34-0.56,0.59-0.72c0.54-0.33,0.71-0.73,0.48-1.32c-0.19-0.49-0.14-0.99,0.11-1.44c0.43-0.75,0.84-1.53,1.35-2.22
			c0.58-0.79,1.27-1.51,1.91-2.27c0.09-0.11,0.21-0.23,0.24-0.36c0.16-0.62,0.67-0.91,1.13-1.27c0.31-0.24,0.57-0.55,0.8-0.87
			c0.27-0.37,0.48-0.78,0.72-1.17c0.24-0.4,0.48-0.8,0.73-1.18c0.22-0.34,0.39-0.77,0.71-0.98c1.19-0.82,1.58-2.11,2.1-3.34
			c0.1-0.24,0.18-0.51,0.34-0.71c0.79-1,1.17-2.2,1.75-3.31c0.14-0.28,0.33-0.55,0.55-0.77c0.94-0.97,1.69-2.07,2.36-3.22
			c0.4-0.68,0.63-1.5,1.15-2.04c0.69-0.71,0.63-1.83,1.48-2.4c0.02-0.01,0.05-0.05,0.05-0.07c-0.06-0.88,0.65-1.28,1.12-1.84
			c0.37-0.44,0.55-1.02,0.91-1.47c0.63-0.8,1.34-1.52,1.98-2.31c0.94-1.16,1.57-2.51,2.27-3.81c0.34-0.64,0.76-1.24,1.16-1.84
			c0.51-0.77,1.04-1.54,1.58-2.3c0.2-0.28,0.47-0.52,0.68-0.8c0.3-0.39,0.57-0.8,0.85-1.2c0.36-0.52,0.7-1.07,1.09-1.57
			c1.39-1.83,2.73-3.69,4.17-5.48c0.73-0.91,1.49-1.87,1.88-3.02c0.05-0.14,0.1-0.28,0.19-0.39c1.43-1.73,2.12-3.96,3.76-5.56
			c0.53-1.26,1.72-2.03,2.36-3.21c0.17-0.31,0.33-0.62,0.52-0.91c0.51-0.77,1.03-1.53,1.55-2.29c0.3-0.43,0.61-0.84,0.91-1.27
			c0.28-0.4,0.51-0.86,0.84-1.21c0.75-0.77,1.53-1.51,2.34-2.22c0.31-0.27,0.48-0.54,0.56-0.93c0.06-0.3,0.23-0.58,0.37-0.86
			c0.15-0.31,0.32-0.61,0.49-0.91c0.1-0.18,0.15-0.4,0.3-0.52c0.9-0.76,1.35-1.8,1.86-2.82c0.44-0.88,0.95-1.73,1.46-2.58
			c0.65-1.06,1.34-2.11,2.02-3.15c0.91-1.39,1.84-2.76,2.73-4.17c0.44-0.71-0.14-1.61-1.12-1.71c-0.87-0.09-1.74-0.09-2.62-0.08
			c-1.05,0.02-2.09,0.12-3.14,0.15c-0.7,0.02-1.4-0.03-2.09-0.03c-0.84,0-1.68,0.01-2.53,0.03c-1.11,0.03-2.2,0.02-3.29-0.27
			c-0.47-0.12-0.98-0.09-1.48-0.1c-1.14-0.01-2.28-0.06-3.41,0.02c-1.04,0.07-2.06,0.29-3.1,0.4c-0.61,0.07-1.23,0.11-1.83,0.06
			c-0.68-0.07-1.22-1.16-0.96-1.89c0.38-1.04,1.06-1.68,2.32-1.52c1.53,0.21,3.07,0.14,4.62-0.01c1.15-0.11,2.33,0.01,3.49,0.04
			c0.26,0.01,0.53,0.07,0.78,0.04c0.95-0.13,1.89-0.31,2.85-0.44c0.69-0.09,1.39-0.11,2.09-0.18c2.49-0.26,4.98-0.53,7.47-0.78
			c0.58-0.06,1.17-0.14,1.74-0.07c0.8,0.11,1.56-0.02,2.34-0.07c1.21-0.08,2.4-0.36,3.65-0.19c1.44,0.19,2.89,0.15,4.34-0.23
			c1.11-0.29,2.24-0.22,3.34,0.19c1.45,0.54,2.92,0.39,4.4,0.17c1.46-0.22,2.9-0.27,4.3,0.32c1.25,0.53,1.67,1.6,0.99,2.76
			c-0.33,0.57-0.8,1.07-1.18,1.62c-0.66,0.99-1.31,1.99-1.94,2.99c-0.29,0.47-0.5,0.99-0.8,1.45c-0.77,1.16-1.57,2.31-2.37,3.46
			c-1.2,1.71-2.5,3.36-3.59,5.14c-0.95,1.55-2.26,2.81-3.19,4.35c-0.26,0.42-0.46,0.88-0.74,1.29c-1.25,1.75-2.45,3.55-3.97,5.09
			c-0.26,0.27-0.5,0.58-0.69,0.9c-0.77,1.31-1.66,2.5-2.69,3.63c-0.74,0.81-1.27,1.81-1.88,2.73c-0.92,1.38-1.68,2.9-2.77,4.13
			c-1.34,1.52-2.42,3.2-3.49,4.88c-0.78,1.23-1.55,2.45-2.49,3.56c-0.28,0.33-0.44,0.75-0.64,1.14c-0.51,0.99-1.09,1.92-2.04,2.56
			c-0.26,0.17-0.5,0.42-0.65,0.69c-0.62,1.15-1.17,2.35-1.82,3.48c-0.68,1.21-1.24,2.51-2.27,3.5c-0.24,0.23-0.41,0.56-0.58,0.86
			c-0.46,0.77-0.89,1.56-1.36,2.33c-0.17,0.27-0.38,0.56-0.65,0.69c-0.58,0.29-0.79,0.81-1.06,1.33c-0.32,0.62-0.73,1.19-1.08,1.79
			c-0.29,0.5-0.56,1.02-0.81,1.54c-0.46,0.97-1.04,1.86-1.7,2.71c-0.79,1.04-1.53,2.12-2.31,3.17c-0.22,0.3-0.52,0.54-0.78,0.81
			c-0.22,0.23-0.48,0.43-0.66,0.69c-0.67,0.96-1.29,1.95-1.97,2.89c-0.51,0.7-1.1,1.34-1.62,2.04c-0.87,1.19-1.73,2.39-2.55,3.62
			c-0.4,0.6-0.68,1.27-1.06,1.88c-0.11,0.18-0.41,0.23-0.55,0.41c-0.55,0.67-1.11,1.35-1.59,2.07c-0.15,0.23-0.09,0.61-0.07,0.92
			c0.03,0.61,0.02,0.7-0.57,0.89c-0.62,0.2-1.05,0.59-1.44,1.08c-0.56,0.7-1.18,1.37-1.75,2.07c-0.14,0.17-0.2,0.39-0.28,0.6
			c-0.06,0.16-0.05,0.39-0.16,0.48c-0.63,0.5-1.23,1.18-1.96,1.39C67.99,102.69,67.53,103.04,67.21,103.75z M29.18,133.6
			c0.42,0.48,0.49,0.54,0.96,0.49c0.52-0.06,1.1-0.04,1.43-0.6C30.71,132.72,30.1,132.74,29.18,133.6z"/>
		<path d="M70.7,109.29c0.19-0.15,0.36-0.35,0.58-0.42c0.1-0.03,0.33,0.15,0.42,0.29c0.04,0.06-0.12,0.33-0.24,0.37
			c-0.2,0.06-0.44,0.02-0.66,0.02C70.76,109.46,70.73,109.37,70.7,109.29z"/>
		<path class="st2" d="M107.19,71.69c0.17,1,0.34,2,0.51,3c0.05,0.26,0.17,0.51,0.17,0.76c-0.03,2.42,0.13,4.83-0.21,7.25
			c-0.25,1.8-0.58,3.61-0.47,5.46c0.09,1.57,0.08,3.14,0.1,4.72c0.01,0.78-0.24,1.4-0.98,1.81c-0.66,0.36-1.28,0.73-2.03,0.29
			c-2.11-0.16-4.19-0.57-6.35-0.21c-1.38,0.23-2.83,0.34-4.26,0.15c-0.34-0.04-0.69,0.1-1.04,0.09c-0.46,0-0.95,0.04-1.36-0.12
			c-0.97-0.37-1.35-1.19-1.2-2.27c0.04-0.26,0.13-0.52,0.13-0.77c0.01-1.08,0.35-1.99,1.19-2.7c0.19-0.17,0.34-0.4,0.47-0.63
			c0.44-0.81,0.86-1.64,1.3-2.45c0.21-0.38,0.48-0.72,0.7-1.1c0.27-0.47,0.49-0.99,0.79-1.44c0.51-0.77,1.02-1.57,1.62-2.26
			c1-1.14,1.52-2.54,2.27-3.81c0.43-0.72,0.89-1.43,1.36-2.13c0.26-0.38,0.31-0.77,0.32-1.23c0.04-0.95,0.21-1.9,0.35-2.85
			c0.02-0.15,0.14-0.35,0.27-0.42c1.05-0.58,1.61-1.64,2.39-2.47c0.51-0.55,0.93-1.16,1.29-1.85c0.43-0.84,1.52-0.72,1.88,0.15
			c0.2,0.5,0.31,1.05,0.43,1.58c0.11,0.51,0.19,1.02,0.28,1.54c0.1,0.63,0.19,1.26,0.29,1.89
			C107.33,71.67,107.26,71.68,107.19,71.69z"/>
		<path class="st2" d="M69.63,124.24c1.59-0.26,3.04,0.15,4.59,0.21c-0.11-0.69-0.21-1.33-0.32-1.97c0.68-0.56,1.42-0.56,2-0.01
			c0.49,0.47,0.35,1.75-0.28,2.09c-0.88,0.47-1.74,1.04-2.8,1.06c-0.67,0.01-1.34,0.11-2,0.03c-0.36-0.04-0.73-0.32-1.01-0.59
			C69.66,124.9,69.69,124.55,69.63,124.24z"/>
		<path class="st2" d="M129.69,73.78c0.07,0.62,0.11,1.07,0.16,1.54c0.4-0.02,0.71-0.04,1.19-0.07c-0.21,0.39-0.34,0.65-0.49,0.91
			c-0.13,0.22-0.34,0.41-0.42,0.65c-0.05,0.15,0.02,0.49,0.12,0.53c0.69,0.25,0.57,0.95,0.78,1.43c0.2,0.45,0.17,1.02-0.29,1.45
			c-0.15,0.14-0.17,0.42-0.28,0.62c-0.12,0.23-0.22,0.49-0.4,0.65c-0.4,0.37-0.88,0.19-0.96-0.34c-0.04-0.25,0-0.52,0.02-0.78
			c0.01-0.2,0.08-0.42,0.03-0.6c-0.17-0.63-0.11-1.24-0.02-1.89c0.11-0.83,0-1.68,0.05-2.52C129.21,74.86,129.09,74.3,129.69,73.78z
			"/>
		<path class="st2" d="M119.37,84.46c0.58-0.05,1.32,1.06,1.02,1.56c-0.31,0.53-0.41,1.06-0.46,1.65c-0.05,0.56-0.39,0.87-0.8,0.86
			c-0.55-0.02-0.93-0.35-1-0.88c-0.03-0.23,0-0.48-0.08-0.69c-0.46-1.16,0.31-1.76,1.06-2.36
			C119.19,84.52,119.31,84.49,119.37,84.46z"/>
		<path class="st2" d="M124.08,131.67c0.41-0.2,0.67-0.36,0.95-0.46c0.75-0.27,1.43-0.61,1.94-1.27c0.37-0.48,0.64-0.46,1.07-0.01
			c0.22,0.23,0.4,0.5,0.62,0.79c-0.53,0.92-0.84,2.03-2.29,2.02c-0.2-0.44-0.54-0.61-1.08-0.47
			C124.88,132.38,124.53,132.14,124.08,131.67z"/>
		<path class="st2" d="M67.08,128.1c-0.54,0.1-1.02,0.2-1.53-0.25c0.23-0.24,0.4-0.52,0.64-0.66c0.73-0.42,0.76-0.48,0.16-1.23
			c0.75,0.04,1.39,0.08,1.95,0.79c-0.41,0.21-0.73,0.37-1.1,0.55C67.17,127.52,67.13,127.77,67.08,128.1z"/>
		<path class="st2" d="M121.93,127.59c0.07-0.49,0.11-0.85,0.16-1.21c0.09-0.55,0.48-0.84,0.94-1.05c0.34-0.15,0.56-0.01,0.59,0.37
			c0.03,0.31,0.01,0.63,0.01,1.06C123.12,127.01,122.56,127.28,121.93,127.59z"/>
		<path class="st2" d="M131.85,132.92c-0.89,0.86-1.83,0.95-2.86,0.78c0.12-0.96,0.12-0.96,0.93-1.03
			C130.82,132.58,130.86,132.58,131.85,132.92z"/>
		<path class="st2" d="M77.12,129.43c0.43-0.33,0.78-0.39,1.22-0.11c0.32,0.2,0.71,0.28,1.12,0.44
			C78.54,130.3,77.58,130.16,77.12,129.43z"/>
		<path class="st2" d="M62.6,123.74c-0.37-0.03-0.68-0.06-0.99-0.09c0.31-0.49,0.51-0.99,1.18-1.2
			C62.71,122.95,62.66,123.3,62.6,123.74z"/>
		<path class="st2" d="M70.15,125.98c0.61,0.02,1.07,0.16,1.36,0.67C70.8,126.97,70.24,126.72,70.15,125.98z"/>
		<path class="st2" d="M73.97,120.84c0.4-0.3,0.73-0.42,1.04-0.22c0.14,0.09,0.16,0.37,0.24,0.56c-0.17,0.04-0.37,0.16-0.51,0.12
			C74.49,121.21,74.27,121.03,73.97,120.84z"/>
		<path class="st2" d="M64.75,121.85c-0.41,0.05-0.61,0.12-0.78,0.08c-0.27-0.05-0.53-0.21-0.41-0.53c0.12-0.31,0.44-0.26,0.67-0.14
			C64.38,121.35,64.48,121.54,64.75,121.85z"/>
		<path class="st2" d="M129.69,82.29c0.39,0.3,0.64,0.57,0.5,1.04C129.38,83.28,129.24,83.03,129.69,82.29z"/>
		<path class="st2" d="M75.09,131.72c0.67-0.34,0.75-0.31,1.04,0.29C75.43,132.23,75.4,132.22,75.09,131.72z"/>
		<path class="st2" d="M69.57,131.51c-0.27,0.29-0.5,0.33-0.72,0.11c-0.05-0.05-0.05-0.25,0-0.3
			C69.13,131.08,69.35,131.2,69.57,131.51z"/>
		<path class="st2" d="M120.51,101.09c0.23-0.28,0.36-0.44,0.59-0.72C121.17,100.89,121.06,101.07,120.51,101.09z"/>
		<path class="st2" d="M76.79,128.23c-0.13,0.06-0.25,0.13-0.38,0.19c-0.03-0.04-0.05-0.09-0.08-0.13c0.11-0.08,0.22-0.16,0.33-0.24
			C76.7,128.11,76.75,128.17,76.79,128.23z"/>
		<path class="st2" d="M64.7,130.01c-0.13-0.02-0.27-0.03-0.4-0.05c0.01-0.05,0.01-0.1,0.02-0.15c0.13,0.02,0.27,0.04,0.4,0.06
			C64.71,129.92,64.7,129.96,64.7,130.01z"/>
		<path class="st2" d="M64.33,130.82c0.06,0.05,0.09,0.09,0.13,0.12c-0.06,0.04-0.12,0.1-0.18,0.12c-0.02,0.01-0.07-0.06-0.11-0.1
			C64.22,130.92,64.28,130.87,64.33,130.82z"/>
		<path class="st2" d="M29.18,133.6c0.93-0.86,1.53-0.88,2.39-0.12c-0.32,0.56-0.91,0.54-1.43,0.6
			C29.66,134.14,29.6,134.08,29.18,133.6z"/>
	</g>
</g>
<g id="Layer_3" class="st0">
	<line class="st3" x1="0" y1="0" x2="144" y2="0"/>
	<line class="st3" x1="0" y1="18" x2="144" y2="18"/>
	<line class="st3" x1="0" y1="36" x2="144" y2="36"/>
	<line class="st3" x1="0" y1="54" x2="144" y2="54"/>
	<line class="st3" x1="0" y1="72" x2="144" y2="72"/>
	<line class="st3" x1="0" y1="90" x2="144" y2="90"/>
	<line class="st3" x1="0" y1="108" x2="144" y2="108"/>
	<line class="st3" x1="0" y1="126" x2="144" y2="126"/>
	<line class="st3" x1="0" y1="144" x2="144" y2="144"/>
</g>
<g id="Layer_2" class="st0">
	<path class="st1" d="M85.98,6h49.76L64.95,108.65c0,0-28.34,36.05-47.37,24.28S9.8,99.39,12.7,98.67c0,0-8.95,26.38,11.43,23.45
		s40.58-37.66,40.58-37.66l49.94-76.8H86.38L85.98,6z"/>
	<polygon class="st1" points="46.41,137.74 138.59,6 138.59,138 110.39,138 110.39,47.47 87.91,79.22 86.93,138 	"/>
</g>
<g id="Layer_4">
	<path class="st4" d="M85.98,6h49.76L64.95,108.65c0,0-28.34,36.05-47.37,24.28S9.8,99.39,12.7,98.67c0,0-8.95,26.38,11.43,23.45
		s40.58-37.66,40.58-37.66l49.94-76.8H86.38L85.98,6z"/>
	<polygon points="135.74,11.45 135.74,135.29 117.99,135.29 117.99,38.02 	"/>
	<polygon points="115.58,41.08 115.58,135.29 97.83,135.29 97.83,67.8 	"/>
	<polygon points="95.42,70.65 95.42,135.29 77.67,135.29 77.67,97.69 	"/>
	<path d="M75.26,100.79v34.5H57.51v-13.17c8.09-7.46,13.86-15.3,13.86-15.3L75.26,100.79z"/>
	<path d="M55.1,124.01v11.28H37.35v-0.67C43.47,133.03,49.69,128.77,55.1,124.01z"/>
	<g>
		<g>
			<line class="st5" x1="3.99" y1="138.94" x2="133.48" y2="138.94"/>
			<g>
				<polygon points="128.75,141.49 128.48,140.74 133.4,138.94 128.48,137.15 128.75,136.4 135.74,138.94 				"/>
			</g>
		</g>
	</g>
	<g>
		<g>
			<line class="st5" x1="3.99" y1="138.94" x2="3.99" y2="8.27"/>
			<g>
				<polygon points="6.54,12.99 5.78,13.27 3.99,8.34 2.2,13.27 1.45,12.99 3.99,6 				"/>
			</g>
		</g>
	</g>
</g>
<g id="Layer_5" class="st0">
	<polygon class="st6" points="76.5,120.64 115.58,66.56 115.58,119.64 	"/>
</g>
</svg>
